<svg xmlns="http://www.w3.org/2000/svg" viewBox="0 0 1000 500" width="1000" height="500" role="img" aria-label="A younger voice and an adult voice both recognised accurately by the same system">
<rect width="1000" height="500" fill="#ffffff"/>
<circle cx="500" cy="250" r="196" fill="#4338CA" opacity="0.04"/>
<g fill="#4338CA" opacity="0.75">
<rect x="92" y="140" width="11" height="26" rx="5.5"/>
<rect x="114" y="130" width="11" height="46" rx="5.5"/>
<rect x="136" y="118" width="11" height="70" rx="5.5"/>
<rect x="158" y="128" width="11" height="50" rx="5.5"/>
<rect x="180" y="112" width="11" height="82" rx="5.5"/>
<rect x="202" y="134" width="11" height="38" rx="5.5"/>
<rect x="224" y="142" width="11" height="22" rx="5.5"/>
</g>
<g fill="#4338CA">
<rect x="92" y="330" width="11" height="40" rx="5.5"/>
<rect x="114" y="308" width="11" height="84" rx="5.5"/>
<rect x="136" y="286" width="11" height="128" rx="5.5"/>
<rect x="158" y="300" width="11" height="100" rx="5.5"/>
<rect x="180" y="276" width="11" height="148" rx="5.5"/>
<rect x="202" y="304" width="11" height="92" rx="5.5"/>
<rect x="224" y="326" width="11" height="48" rx="5.5"/>
</g>
<path d="M262 153C340 153 350 214 408 228" fill="none" stroke="#4338CA" stroke-width="6" stroke-linecap="round" opacity="0.45" stroke-dasharray="2 14"/>
<path d="M262 350C340 350 350 288 408 274" fill="none" stroke="#4338CA" stroke-width="6" stroke-linecap="round" opacity="0.45" stroke-dasharray="2 14"/>
<rect x="416" y="188" width="124" height="124" rx="30" fill="#4338CA"/>
<path d="M448 250h14l12-26 16 52 14-34 10 20h16" fill="none" stroke="#ffffff" stroke-width="9" stroke-linecap="round" stroke-linejoin="round"/>
<path d="M548 228C606 214 616 153 694 153" fill="none" stroke="#4338CA" stroke-width="6" stroke-linecap="round" opacity="0.45" stroke-dasharray="2 14"/>
<path d="M548 274C606 288 616 350 694 350" fill="none" stroke="#4338CA" stroke-width="6" stroke-linecap="round" opacity="0.45" stroke-dasharray="2 14"/>
<g fill="#4338CA">
<rect x="712" y="116" width="196" height="13" rx="6.5"/>
<rect x="712" y="146" width="166" height="13" rx="6.5" opacity="0.8"/>
<rect x="712" y="176" width="188" height="13" rx="6.5" opacity="0.62"/>
<rect x="712" y="313" width="196" height="13" rx="6.5"/>
<rect x="712" y="343" width="166" height="13" rx="6.5" opacity="0.8"/>
<rect x="712" y="373" width="188" height="13" rx="6.5" opacity="0.62"/>
</g>
</svg>
