<svg xmlns="http://www.w3.org/2000/svg" viewBox="0 0 1000 500" width="1000" height="500" role="img" aria-label="Dictation appearing at the text cursor across schoolwork on a Windows laptop">
<rect width="1000" height="500" fill="#ffffff"/>
<circle cx="500" cy="240" r="206" fill="#4338CA" opacity="0.04"/>
<rect x="318" y="126" width="364" height="232" rx="16" fill="#ffffff" stroke="#CBD5E1" stroke-width="3"/>
<rect x="318" y="126" width="364" height="34" rx="16" fill="#EEF2FF"/>
<path d="M318 160h364" stroke="#CBD5E1" stroke-width="3"/>
<circle cx="342" cy="143" r="5" fill="#CBD5E1"/><circle cx="360" cy="143" r="5" fill="#CBD5E1"/><circle cx="378" cy="143" r="5" fill="#CBD5E1"/>
<g fill="#4338CA">
<rect x="350" y="192" width="200" height="12" rx="6"/>
<rect x="350" y="220" width="256" height="12" rx="6" opacity="0.82"/>
<rect x="350" y="248" width="168" height="12" rx="6" opacity="0.64"/>
</g>
<rect x="530" y="242" width="4" height="24" rx="2" fill="#4338CA"/>
<g fill="#CBD5E1">
<rect x="350" y="286" width="120" height="10" rx="5"/>
<rect x="350" y="310" width="90" height="10" rx="5"/>
</g>
<path d="M286 384h428l30 34H256Z" fill="#EEF2FF" stroke="#CBD5E1" stroke-width="3" stroke-linejoin="round"/>
<rect x="108" y="150" width="128" height="96" rx="12" fill="#ffffff" stroke="#CBD5E1" stroke-width="3"/>
<g fill="#CBD5E1"><rect x="126" y="174" width="80" height="8" rx="4"/><rect x="126" y="194" width="92" height="8" rx="4"/><rect x="126" y="214" width="58" height="8" rx="4"/></g>
<rect x="764" y="150" width="128" height="96" rx="12" fill="#ffffff" stroke="#CBD5E1" stroke-width="3"/>
<g fill="none" stroke="#CBD5E1" stroke-width="3"><rect x="782" y="172" width="22" height="22" rx="5"/><rect x="782" y="206" width="22" height="22" rx="5"/></g>
<g fill="#CBD5E1"><rect x="816" y="179" width="58" height="8" rx="4"/><rect x="816" y="213" width="58" height="8" rx="4"/></g>
<rect x="764" y="292" width="128" height="88" rx="12" fill="#ffffff" stroke="#CBD5E1" stroke-width="3"/>
<g fill="#CBD5E1"><rect x="782" y="316" width="76" height="8" rx="4"/><rect x="782" y="336" width="92" height="8" rx="4"/><rect x="782" y="356" width="48" height="8" rx="4"/></g>
<path d="M240 198C282 198 292 214 316 220" fill="none" stroke="#4338CA" stroke-width="5" stroke-linecap="round" opacity="0.4" stroke-dasharray="2 12"/>
<path d="M684 208C714 202 730 198 760 198" fill="none" stroke="#4338CA" stroke-width="5" stroke-linecap="round" opacity="0.4" stroke-dasharray="2 12"/>
<path d="M684 268C714 292 730 320 760 328" fill="none" stroke="#4338CA" stroke-width="5" stroke-linecap="round" opacity="0.4" stroke-dasharray="2 12"/>
<g transform="translate(112 300)">
<path d="M14 54V38a34 34 0 0 1 68 0v16" fill="none" stroke="#4338CA" stroke-width="9" stroke-linecap="round"/>
<rect x="2" y="52" width="24" height="38" rx="11" fill="#4338CA"/>
<rect x="70" y="52" width="24" height="38" rx="11" fill="#4338CA"/>
<path d="M82 90v10a12 12 0 0 1-12 12H56" fill="none" stroke="#4338CA" stroke-width="8" stroke-linecap="round"/>
<rect x="30" y="104" width="24" height="16" rx="8" fill="#4338CA"/>
</g>
</svg>
