<svg xmlns="http://www.w3.org/2000/svg" viewBox="0 0 1200 630" width="1200" height="630" role="img" aria-label="Spoken words flowing onto a page, bypassing the handwriting bottleneck">
<rect width="1200" height="630" fill="#ffffff"/>
<circle cx="1055" cy="105" r="235" fill="#4338CA" opacity="0.05"/>
<circle cx="130" cy="545" r="175" fill="#4338CA" opacity="0.04"/>
<g>
<rect x="158" y="212" width="58" height="118" rx="29" fill="#4338CA"/>
<path d="M128 306a59 59 0 0 0 118 0" fill="none" stroke="#4338CA" stroke-width="11" stroke-linecap="round"/>
<rect x="181" y="366" width="12" height="44" rx="6" fill="#4338CA"/>
<rect x="149" y="410" width="76" height="13" rx="6.5" fill="#4338CA"/>
</g>
<path d="M268 244q26 34 0 68" fill="none" stroke="#4338CA" stroke-width="9" stroke-linecap="round" opacity="0.55"/>
<path d="M304 218q42 58 0 116" fill="none" stroke="#4338CA" stroke-width="9" stroke-linecap="round" opacity="0.3"/>
<path d="M338 192q58 84 0 168" fill="none" stroke="#4338CA" stroke-width="9" stroke-linecap="round" opacity="0.15"/>
<path d="M300 330C430 300 470 424 610 402S806 434 942 398" fill="none" stroke="#4338CA" stroke-width="16" stroke-linecap="round" opacity="0.85"/>
<path d="M300 362C430 334 476 456 614 434S812 466 946 430" fill="none" stroke="#4338CA" stroke-width="9" stroke-linecap="round" opacity="0.3"/>
<path d="M806 352C742 330 664 326 588 338v192c76-12 154-8 218 16Z" fill="#ffffff" stroke="#CBD5E1" stroke-width="3"/>
<path d="M806 352c64-22 142-26 218-14v192c-76-12-154-8-218 16Z" fill="#ffffff" stroke="#CBD5E1" stroke-width="3"/>
<path d="M806 352v198" stroke="#CBD5E1" stroke-width="3"/>
<g fill="#CBD5E1">
<rect x="618" y="386" width="74" height="9" rx="4.5"/>
<rect x="706" y="384" width="38" height="9" rx="4.5"/>
<rect x="618" y="418" width="46" height="9" rx="4.5"/>
<rect x="618" y="450" width="88" height="9" rx="4.5" opacity="0.6"/>
</g>
<g transform="rotate(-24 700 505)">
<rect x="640" y="496" width="132" height="15" rx="4" fill="#94A3B8"/>
<path d="M772 496l30 7.5-30 7.5Z" fill="#64748B"/>
<rect x="640" y="496" width="16" height="15" rx="4" fill="#CBD5E1"/>
</g>
<g fill="#4338CA">
<rect x="838" y="384" width="176" height="13" rx="6.5"/>
<rect x="838" y="416" width="150" height="13" rx="6.5" opacity="0.82"/>
<rect x="838" y="448" width="168" height="13" rx="6.5" opacity="0.64"/>
<rect x="838" y="480" width="104" height="13" rx="6.5" opacity="0.46"/>
</g>
</svg>
